<?xml version="1.0" encoding="utf-8"?>
<!-- Generator: Adobe Illustrator 16.0.0, SVG Export Plug-In . SVG Version: 6.00 Build 0)  -->
<!DOCTYPE svg PUBLIC "-//W3C//DTD SVG 1.1//EN" "http://www.w3.org/Graphics/SVG/1.1/DTD/svg11.dtd">
<svg version="1.1" id="Layer_1" xmlns="http://www.w3.org/2000/svg" xmlns:xlink="http://www.w3.org/1999/xlink" x="0px" y="0px"
	 width="1128.785px" height="107.236px" viewBox="0 0 1128.785 107.236" enable-background="new 0 0 1128.785 107.236"
	 xml:space="preserve">
<g>
	<path fill="#B9B9B9" d="M134.357,53.253c30.921,0,61.843,0,92.764,0c0.001,0.167,0.001,0.334,0.002,0.501
		c-30.919,0-61.838,0-92.757,0C134.363,53.587,134.36,53.42,134.357,53.253z"/>
	<path fill="#B9B9B9" d="M907.366,53.253c30.921,0,61.844,0,92.766,0c0,0.168,0.001,0.336,0.001,0.504c-30.925,0-61.851,0-92.775,0
		C907.36,53.589,907.363,53.421,907.366,53.253z"/>
	<path fill="#B9B9B9" d="M653.345,53.26c30.919,0,61.838,0,92.757,0c0.001,0.163,0.002,0.326,0.002,0.488
		c-30.907,0-61.815,0-92.723,0C653.369,53.586,653.357,53.423,653.345,53.26z"/>
	<path fill="#B9B9B9" d="M481.109,53.89c-30.918,0-61.837,0-92.755,0c-0.001-0.167-0.002-0.334-0.002-0.5
		c30.926,0,61.851,0,92.776,0C481.123,53.556,481.116,53.723,481.109,53.89z"/>
	<g>
		<path fill="#BFBFBF" d="M594.595,0.01c15.67-0.309,29.524,6.142,37.377,22.636c8.25,17.332,0.892,39.051-16.09,48.1
			c-5.306,2.827-9.173,6.69-11.751,12.268c-7.359,15.918-25.57,25.809-43.468,24.016c-17.6-1.763-33.336-15.696-37.329-33.433
			c-3.348-14.863,0.308-27.998,10.844-39.034c4.609-4.829,7.625-10.814,12.369-15.604C559.313,6.071,574.529-0.296,594.595,0.01z"/>
		<path fill="#F7F7F7" d="M591.66,2.02c12.002,0.077,22.95,2.459,31.784,11.603c15.833,16.39,11.815,44.238-8.309,54.992
			c-5.786,3.092-9.974,7.408-12.894,13.315c-8.955,18.114-29.171,27.106-48.037,21.611c-18.89-5.501-31.73-24.007-29.83-43.714
			c0.828-8.586,4.019-16.575,10.354-22.658c4.516-4.335,7.05-9.998,11.225-14.569C558.307,9.071,573.356,2.049,591.66,2.02z"/>
		<path fill="#BCBCBC" d="M603.985,25.075c2.263,0.022,3.271,1.223,3.252,3.427c-0.02,2.47-1.269,3.631-3.707,3.542
			c-2.231-0.082-3.251-1.33-3.276-3.491C600.223,26.031,601.57,24.98,603.985,25.075z"/>
		<path fill="#BBBBBB" d="M576.316,44.748c0.295-2.094,1.456-3.394,3.481-3.608c2.334-0.248,3.943,1.062,4.134,3.275
			c0.174,2.033-1.288,3.373-3.327,3.583C578.266,48.239,577.017,46.793,576.316,44.748z"/>
		<path fill="#BABABA" d="M579.901,76.134c2.141,0.581,3.412,1.891,3.269,4.198c-0.147,2.368-1.801,2.873-3.806,2.776
			c-2.237-0.108-3.296-1.352-3.037-3.526C576.568,77.563,577.831,76.419,579.901,76.134z"/>
		<path fill="#C4C4C4" d="M555.414,32.729c-0.945,0.021-1.631-0.541-1.747-1.34c-0.192-1.33,0.602-2.131,1.938-2.173
			c0.923-0.028,1.489,0.57,1.502,1.496C557.119,31.824,556.468,32.466,555.414,32.729z"/>
		<path fill="#BFBFBF" d="M546.217,57.058c0.029-0.886,0.359-1.683,1.328-1.618c0.835,0.055,1.438,0.688,1.425,1.632
			c-0.015,0.938-0.651,1.574-1.459,1.627C546.55,58.762,546.228,57.943,546.217,57.058z"/>
	</g>
	<g>
		<path fill="#BFBFBF" d="M767.157,55.742c-0.343-25.101,16.531-32.354,35.549-31.204c2.25,0.137,3.64-0.196,5.291-1.593
			c15.979-13.505,42.854-12.299,57.952,2.256c10.29,9.919,18.05,21.113,20.714,35.486c2.045,11.029-3.181,21.686-13.66,25.245
			c-13.16,4.469-26.779,6.774-40.597,3.82c-5.215-1.114-8.743,2.26-13.206,3.042c-16.349,2.866-42.864-8.968-49.492-22.746
			C767.398,65.25,766.949,60.188,767.157,55.742z"/>
		<path fill="#F6F6F6" d="M844.899,89.026c-1.552,0-1.728,0.035-1.884-0.005c-8.885-2.244-17.303,0.154-26.085,1.521
			c-13.777,2.146-39.352-7.27-45.581-21.993c-4.585-10.835-2.502-26.692,5.415-35.159c2.555-2.731,5.922-4.435,9.532-5.121
			c5.809-1.106,11.598-3.015,17.658-1.35c1.973,0.542,3.488-0.479,4.856-1.879c13.279-13.583,43.037-11.907,56.327,2.181
			c7.415,7.859,14.057,16.028,17.616,26.244c3.301,9.476,4.279,18.894-4.117,26.714c-3.01,2.803-6.698,4.43-10.562,5.376
			C860.023,87.53,851.776,88.389,844.899,89.026z"/>
		<path fill="#BCBCBC" d="M787.711,56.043c1.877-0.028,3.328,0.585,3.454,2.688c0.138,2.274-1.143,3.306-3.342,3.338
			c-1.875,0.025-3.339-0.606-3.484-2.677C784.177,57.091,785.581,56.147,787.711,56.043z"/>
		<path fill="#BCBCBC" d="M842.2,45.883c-0.049,2.271-1.352,3.188-3.511,3.186c-1.89-0.001-3.308-0.663-3.358-2.772
			c-0.057-2.306,1.364-3.201,3.497-3.225C840.729,43.05,842.036,43.755,842.2,45.883z"/>
		<path fill="#BCBCBC" d="M811.889,37.037c-0.558,1.946-1.786,3.02-3.88,3.094c-1.995,0.072-3.345-0.905-3.313-2.812
			c0.032-2.092,1.542-3.181,3.639-3.198C810.257,34.105,811.302,35.267,811.889,37.037z"/>
		<path fill="#C0C0C0" d="M862.751,64.242c0.648,0.146,1.202,0.402,1.293,1.166c0.117,0.996-0.422,1.518-1.33,1.536
			c-0.645,0.014-1.237-0.298-1.304-1.094C861.33,64.88,861.857,64.407,862.751,64.242z"/>
		<path fill="#BDBDBD" d="M823.054,72.332c0.129,0.998-0.385,1.542-1.311,1.567c-0.649,0.017-1.226-0.296-1.312-1.095
			c-0.105-0.987,0.382-1.542,1.313-1.563C822.397,71.227,822.981,71.54,823.054,72.332z"/>
	</g>
	<g>
		<path fill="#BFBFBF" d="M1105.048,2.042c9.6,0.001,15.953,4.059,19.004,13.058c5.841,17.225,6.188,34.711,1.527,52.296
			c-2.092,7.895-7.024,13.489-14.198,17.081c-12.155,6.085-24.875,8.938-38.454,5.971c-1.181-0.258-2.257-0.178-3.428,0.015
			c-13.767,2.262-25.282-1.661-34.045-12.727c-4.315-5.453-6.959-24.794,0.345-34.651c2.491-3.363,4.852-6.901,8.685-8.767
			c9.51-4.627,16.689-12.242,24.797-18.691C1079.24,7.7,1094.91,2.04,1105.048,2.042z"/>
		<path fill="#F4F4F4" d="M1126.292,42.884c0.027,7.654-0.207,13.901-1.463,20.169c-3.109,15.528-14.729,21.328-28.111,24.816
			c-7.913,2.063-16.123,1.991-24.229,0.422c-1.518-0.294-2.938,0.021-4.425,0.326c-11.878,2.433-25.641-3.376-31.708-13.298
			c-6.547-10.703-2.918-30.239,7.15-37.788c4.108-3.082,8.348-5.965,13.234-7.849c4.695-1.811,6.061-7.176,10.162-9.938
			c11.542-7.77,23.224-15.08,37.647-15.6c9.567-0.346,14.287,3.175,17.63,12.179C1125.523,25.333,1126.871,34.638,1126.292,42.884z"
			/>
		<path fill="#BBBBBB" d="M1078.669,66.069c-1.897-0.023-3.281-0.755-3.334-2.834c-0.058-2.333,1.418-3.162,3.533-3.173
			c1.912-0.01,3.257,0.729,3.305,2.828C1082.225,65.229,1080.808,66.078,1078.669,66.069z"/>
		<path fill="#BBBBBB" d="M1106.197,20.248c-0.271,2.327-1.823,2.903-3.881,2.811c-2.007-0.093-3.13-1.104-2.988-3.136
			c0.166-2.362,1.813-2.923,3.861-2.844C1105.21,17.157,1106.21,18.199,1106.197,20.248z"/>
		<path fill="#BCBCBC" d="M1071.781,35.114c2.23-0.088,3.774,0.942,3.95,2.648c0.217,2.1-1.451,3.128-3.487,3.353
			c-1.953,0.215-3.402-0.623-3.556-2.55C1068.518,36.398,1070.079,35.413,1071.781,35.114z"/>
		<path fill="#BCBCBC" d="M1053.691,76.213c0.996,0.136,1.47,0.624,1.358,1.603c-0.09,0.795-0.67,1.099-1.315,1.08
			c-0.932-0.026-1.396-0.593-1.293-1.57C1052.526,76.516,1053.132,76.362,1053.691,76.213z"/>
		<path fill="#BCBCBC" d="M1103.195,53.369c0.644,0.087,0.947,0.402,0.876,1.032c-0.058,0.512-0.432,0.708-0.848,0.696
			c-0.602-0.018-0.9-0.383-0.833-1.013C1102.445,53.564,1102.835,53.465,1103.195,53.369z"/>
	</g>
	<g>
		<path fill="#BFBFBF" d="M336.015,17.058c13.563,0.011,27.143,12.033,30.225,29.105c0.979,5.417,1.608,10.795,0.338,16.281
			c-4.185,18.067-16.433,26.102-34.563,22.271c-2.501-0.527-4.446-0.24-6.662,0.686c-3.516,1.47-7.083,2.899-10.748,3.914
			c-14.271,3.948-26.816,0.232-37.841-9.177c-6.05-5.163-6.987-12.167-4.768-19.156c4.267-13.43,12.666-23.145,26.88-26.91
			c3.688-0.979,6.617-2.954,9.3-6.042C314.682,20.539,323.207,16.777,336.015,17.058z"/>
		<path fill="#F6F6F6" d="M337.45,82.96c-9.407-4.314-18.563,4.727-29.098,5.551c-12.733,0.998-24.129-2.302-32.465-12.538
			c-3.896-4.782-3.606-10.705-1.39-16.16c4.638-11.406,11.837-20.341,24.475-23.601c4.412-1.138,7.869-3.548,10.987-7.134
			c13.334-15.339,38.717-12.821,49.128,4.671c5.766,9.688,7.673,20.066,5.001,31.131C361.652,74.967,352.261,84.427,337.45,82.96z"
			/>
		<path fill="#BCBCBC" d="M292.199,63.107c-0.18,2.318-1.64,3.026-3.737,2.951c-1.954-0.07-3.192-0.973-3.126-3.021
			c0.078-2.349,1.669-3.016,3.735-2.977C291.049,60.101,292.151,61.047,292.199,63.107z"/>
		<path fill="#BBBBBB" d="M343.213,27.807c-0.154,2.49-1.539,3.295-3.666,3.258c-1.938-0.033-3.24-0.822-3.218-2.907
			c0.026-2.33,1.529-3.092,3.632-3.092C341.928,25.066,343.059,25.965,343.213,27.807z"/>
		<path fill="#BCBCBC" d="M321.886,54.052c-0.577,1.95-1.814,3.012-3.91,3.084c-2.021,0.069-3.329-0.968-3.288-2.845
			c0.046-2.084,1.573-3.172,3.672-3.171C320.273,51.122,321.332,52.266,321.886,54.052z"/>
		<path fill="#C0C0C0" d="M349.094,61.646c-0.137,0.936-0.652,1.384-1.613,1.277c-0.786-0.085-1.13-0.661-1.086-1.304
			c0.061-0.879,0.594-1.44,1.584-1.31C348.749,60.414,348.954,61.008,349.094,61.646z"/>
		<path fill="#BCBCBC" d="M324.76,74.213c0.65,0.129,1.225,0.337,1.303,1.135c0.099,0.986-0.398,1.558-1.327,1.552
			c-0.935-0.005-1.405-0.593-1.297-1.574C323.525,74.521,324.11,74.337,324.76,74.213z"/>
	</g>
	<g>
		<path fill="#BFBFBF" d="M44.347,10.865c5.672,3.802,12.307-2.441,18.956,0.179C81.434,18.19,99.59,25.28,109.641,43.851
			c5.651,10.44,3.627,19.833-5.949,26.946c-6.386,4.744-13.663,6.694-21.529,6.336c-3.342-0.151-5.281,0.881-7.108,3.969
			c-5.848,9.876-14.474,12.716-26.114,9.309c-11.908-3.484-21.618-10.719-31.124-18.275c-4.685-3.724-9.067-7.731-12.67-12.604
			c-6.445-8.713-7.145-17.958-0.335-26.055c9.023-10.73,20.305-18.521,34.109-22.117C40.343,10.989,41.884,11.075,44.347,10.865z"/>
		<path fill="#F4F4F4" d="M43.76,12.989c4.936,1.133,9.742,1.211,14.647-0.522c1.647-0.583,4.137-0.017,5.796,0.863
			c12.354,6.552,26.461,10.104,36.147,21.271c3.291,3.795,6.305,7.755,8.563,12.186c4.319,8.47,0.728,18.396-8.335,23.604
			c-5.73,3.295-11.856,5.29-18.552,4.718c-3.936-0.336-6.482,1.144-8.626,4.497c-6.314,9.872-13.023,12.579-24.127,8.779
			c-15.88-5.433-29.354-15.062-40.277-27.558c-10.27-11.746-9.253-20.317,2.194-31.102c7.294-6.871,15.582-12.391,25.226-15.587
			C38.804,13.349,41.223,12.804,43.76,12.989z"/>
		<path fill="#BCBCBC" d="M42.039,43.06c-3.311,0.018-4.755-0.805-4.719-3.147c0.033-2.098,1.367-2.849,3.288-2.844
			c2.119,0.005,3.576,0.828,3.548,3.163C44.132,42.343,42.759,43.051,42.039,43.06z"/>
		<path fill="#BBBBBB" d="M91.549,50.047c2.081,0.032,3.613,0.776,3.601,3.126c-0.013,2.074-1.331,2.861-3.257,2.887
			c-2.121,0.026-3.583-0.752-3.576-3.104C88.322,50.867,89.63,50.086,91.549,50.047z"/>
		<path fill="#BABABA" d="M71.61,28.111c1.784,0.308,3.331,1.294,3.174,3.432c-0.14,1.896-1.567,2.725-3.508,2.568
			c-1.938-0.156-3.071-1.125-3.045-3.098C68.257,29.005,69.458,28.108,71.61,28.111z"/>
		<path fill="#BCBCBC" d="M59.128,67.027c0.041,0.301-0.467,0.843-1.389,0.866c-0.647,0.017-1.219-0.301-1.305-1.092
			c-0.107-0.981,0.381-1.532,1.307-1.556C58.391,65.23,58.961,65.555,59.128,67.027z"/>
		<path fill="#BCBCBC" d="M17.753,57.27c0.028,0.205-0.317,0.574-0.946,0.59c-0.441,0.012-0.831-0.204-0.891-0.744
			c-0.073-0.669,0.26-1.045,0.892-1.061C17.251,56.045,17.64,56.266,17.753,57.27z"/>
	</g>
</g>
</svg>
