<?xml version="1.0" encoding="utf-8"?>
<!-- Generator: Adobe Illustrator 16.0.0, SVG Export Plug-In . SVG Version: 6.00 Build 0)  -->
<!DOCTYPE svg PUBLIC "-//W3C//DTD SVG 1.1//EN" "http://www.w3.org/Graphics/SVG/1.1/DTD/svg11.dtd">
<svg version="1.1" id="Layer_1" xmlns="http://www.w3.org/2000/svg" xmlns:xlink="http://www.w3.org/1999/xlink" x="0px" y="0px"
	 width="535.736px" height="110.25px" viewBox="0 0 535.736 110.25" enable-background="new 0 0 535.736 110.25"
	 xml:space="preserve">
<g>
	<path fill="#FFFFFF" stroke="#FFFFFF" stroke-width="3" stroke-miterlimit="10" d="M109.321,22.948
		C101.544,6.615,87.824,0.227,72.308,0.533C52.438,0.229,37.37,6.534,24.729,19.297c-4.698,4.742-7.684,10.669-12.249,15.451
		C2.047,45.677-1.573,58.684,1.742,73.402c3.954,17.563,19.536,31.359,36.966,33.105c17.722,1.775,35.755-8.019,43.043-23.781
		c2.553-5.522,6.381-9.349,11.635-12.147C110.204,61.618,117.49,40.111,109.321,22.948z M92.648,68.469
		c-5.729,3.063-9.877,7.336-12.769,13.187c-8.867,17.938-28.885,26.843-47.568,21.401C13.605,97.607,0.89,79.282,2.773,59.768
		c0.819-8.502,3.979-16.415,10.252-22.438c4.473-4.292,6.981-9.9,11.115-14.427C36.373,9.505,51.277,2.552,69.402,2.523
		C81.286,2.6,92.127,4.958,100.875,14.012C116.555,30.242,112.576,57.82,92.648,68.469z"/>
	<path fill="#FFFFFF" stroke="#FFFFFF" stroke-width="3" stroke-miterlimit="10" d="M81.607,25.353
		c2.242,0.022,3.238,1.21,3.222,3.393c-0.021,2.446-1.257,3.596-3.671,3.508c-2.211-0.082-3.22-1.317-3.245-3.458
		C77.882,26.3,79.215,25.26,81.607,25.353z"/>
	<path fill="#FFFFFF" stroke="#FFFFFF" stroke-width="3" stroke-miterlimit="10" d="M54.208,44.834
		c0.292-2.073,1.44-3.36,3.446-3.573c2.312-0.246,3.905,1.051,4.095,3.244c0.172,2.013-1.276,3.34-3.296,3.548
		C56.139,48.291,54.901,46.859,54.208,44.834z"/>
	<path fill="#FFFFFF" stroke="#FFFFFF" stroke-width="3" stroke-miterlimit="10" d="M57.757,75.914
		c2.121,0.575,3.379,1.872,3.237,4.156c-0.146,2.347-1.782,2.847-3.77,2.75c-2.216-0.106-3.263-1.338-3.008-3.491
		C54.458,77.33,55.707,76.195,57.757,75.914z"/>
	<path fill="#FFFFFF" stroke="#FFFFFF" stroke-width="3" stroke-miterlimit="10" d="M33.51,32.933
		c-0.938,0.021-1.616-0.536-1.73-1.327c-0.19-1.317,0.596-2.11,1.917-2.152c0.914-0.028,1.476,0.565,1.487,1.481
		C35.198,32.036,34.552,32.672,33.51,32.933z"/>
	<path fill="#FFFFFF" stroke="#FFFFFF" stroke-width="3" stroke-miterlimit="10" d="M24.401,57.025
		c0.029-0.879,0.355-1.667,1.315-1.604c0.827,0.054,1.423,0.682,1.411,1.616c-0.016,0.928-0.646,1.56-1.445,1.61
		C24.731,58.713,24.412,57.9,24.401,57.025z"/>
</g>
<g enable-background="new    ">
	<path fill="#FFFFFF" d="M203.698,42.445c0,8.144-2.545,14.372-7.634,18.685c-5.09,4.313-12.327,6.47-21.712,6.47h-6.884v26.914
		h-16.045v-75.67h24.171c9.178,0,16.157,1.976,20.936,5.926C201.308,28.722,203.698,34.613,203.698,42.445z M167.467,54.453h5.279
		c4.934,0,8.626-0.975,11.076-2.924c2.45-1.949,3.675-4.788,3.675-8.515c0-3.761-1.027-6.538-3.08-8.333
		c-2.053-1.794-5.271-2.691-9.653-2.691h-7.298V54.453z"/>
	<path fill="#FFFFFF" d="M269.326,65.478c0,9.42-2.484,16.787-7.453,22.101c-4.969,5.314-11.887,7.971-20.755,7.971
		c-5.556,0-10.455-1.217-14.699-3.648c-4.244-2.434-7.505-5.927-9.782-10.481s-3.416-9.868-3.416-15.941
		c0-9.454,2.467-16.804,7.401-22.049c4.934-5.244,11.87-7.867,20.807-7.867c5.555,0,10.455,1.208,14.699,3.623
		c4.244,2.416,7.505,5.884,9.782,10.403C268.188,54.108,269.326,59.405,269.326,65.478z M229.318,65.478
		c0,5.729,0.94,10.059,2.821,12.991c1.88,2.934,4.943,4.399,9.187,4.399c4.209,0,7.237-1.457,9.083-4.374
		c1.846-2.915,2.769-7.254,2.769-13.017c0-5.728-0.932-10.023-2.795-12.888c-1.863-2.863-4.917-4.296-9.161-4.296
		c-4.21,0-7.246,1.423-9.109,4.271C230.249,55.41,229.318,59.716,229.318,65.478z"/>
	<path fill="#FFFFFF" d="M306.747,82.972c2.76,0,6.072-0.604,9.938-1.812v11.749c-3.934,1.76-8.765,2.64-14.492,2.64
		c-6.314,0-10.912-1.596-13.793-4.787c-2.882-3.191-4.322-7.979-4.322-14.363V48.501h-7.557v-6.677l8.695-5.279l4.555-12.215h10.093
		v12.318h16.2v11.853h-16.2v27.897c0,2.243,0.63,3.899,1.89,4.969C303.012,82.438,304.677,82.972,306.747,82.972z"/>
	<path fill="#FFFFFF" d="M365.13,94.514l-3.054-7.867h-0.414c-2.657,3.348-5.392,5.668-8.204,6.961
		c-2.813,1.295-6.479,1.941-10.998,1.941c-5.556,0-9.93-1.587-13.121-4.762c-3.191-3.174-4.787-7.694-4.787-13.561
		c0-6.142,2.148-10.67,6.443-13.586c4.297-2.916,10.774-4.529,19.436-4.84l10.041-0.311v-2.536c0-5.865-3.002-8.799-9.006-8.799
		c-4.624,0-10.059,1.397-16.304,4.192l-5.228-10.662c6.659-3.484,14.043-5.228,22.152-5.228c7.764,0,13.716,1.691,17.856,5.072
		c4.141,3.382,6.211,8.523,6.211,15.424v38.56H365.13z M360.472,67.703l-6.107,0.207c-4.59,0.139-8.006,0.967-10.248,2.484
		c-2.243,1.519-3.364,3.83-3.364,6.936c0,4.451,2.554,6.677,7.66,6.677c3.657,0,6.581-1.052,8.772-3.157
		c2.191-2.104,3.287-4.899,3.287-8.385V67.703z"/>
	<path fill="#FFFFFF" d="M416.784,82.972c2.76,0,6.072-0.604,9.938-1.812v11.749c-3.934,1.76-8.765,2.64-14.492,2.64
		c-6.314,0-10.912-1.596-13.793-4.787c-2.882-3.191-4.322-7.979-4.322-14.363V48.501h-7.557v-6.677l8.695-5.279l4.555-12.215h10.093
		v12.318h16.2v11.853h-16.2v27.897c0,2.243,0.63,3.899,1.89,4.969C413.049,82.438,414.714,82.972,416.784,82.972z"/>
	<path fill="#FFFFFF" d="M491.005,65.478c0,9.42-2.484,16.787-7.453,22.101c-4.969,5.314-11.888,7.971-20.755,7.971
		c-5.556,0-10.455-1.217-14.699-3.648c-4.244-2.434-7.505-5.927-9.782-10.481s-3.416-9.868-3.416-15.941
		c0-9.454,2.467-16.804,7.401-22.049c4.934-5.244,11.869-7.867,20.807-7.867c5.555,0,10.455,1.208,14.699,3.623
		c4.244,2.416,7.505,5.884,9.782,10.403C489.866,54.108,491.005,59.405,491.005,65.478z M450.996,65.478
		c0,5.729,0.939,10.059,2.821,12.991c1.88,2.934,4.942,4.399,9.187,4.399c4.209,0,7.237-1.457,9.083-4.374
		c1.846-2.915,2.77-7.254,2.77-13.017c0-5.728-0.932-10.023-2.795-12.888c-1.863-2.863-4.917-4.296-9.161-4.296
		c-4.21,0-7.246,1.423-9.109,4.271C451.928,55.41,450.996,59.716,450.996,65.478z"/>
</g>
<g enable-background="new    ">
	<path fill="#FFFFFF" d="M493.494,43.731h-5.648V21.796h-7.232v-4.7h20.113v4.7h-7.232V43.731z"/>
	<path fill="#FFFFFF" d="M516.104,43.731l-6.413-20.896h-0.164c0.23,4.251,0.346,7.087,0.346,8.508v12.389h-5.046V17.096h7.688
		l6.304,20.369h0.108l6.687-20.369h7.688v26.636h-5.266V31.124c0-0.595,0.01-1.281,0.027-2.059c0.019-0.777,0.101-2.842,0.246-6.194
		h-0.164l-6.868,20.86H516.104z"/>
</g>
</svg>
